<svg width="226" height="32" viewBox="0 0 226 32" fill="none" xmlns="http://www.w3.org/2000/svg">
<path fill-rule="evenodd" clip-rule="evenodd" d="M0 2.5V8H1V2.5C1 1.67157 1.67157 1 2.5 1H8V0H2.5C1.11929 0 0 1.11929 0 2.5ZM218 0V1H223.5C224.328 1 225 1.67157 225 2.5V8H226V2.5C226 1.11929 224.881 0 223.5 0H218ZM226 24H225V29.5C225 30.3284 224.328 31 223.5 31H218V32H223.5C224.881 32 226 30.8807 226 29.5V24ZM8 32V31H2.5C1.67157 31 1 30.3284 1 29.5V24H0V29.5C0 30.8807 1.11929 32 2.5 32H8Z" fill="white"/>
</svg>
