<svg width="284" height="196" viewBox="0 0 284 196" fill="none" xmlns="http://www.w3.org/2000/svg">
<g clip-path="url(#clip0_284_137)">
<path d="M0 10C0 4.47715 4.47715 0 10 0H274C279.523 0 284 4.47715 284 10V125C284 130.523 278.387 135.058 275.933 140.006C275.336 141.209 275 142.565 275 144C275 145.435 275.336 146.791 275.933 147.994C278.387 152.942 284 157.477 284 163V186C284 191.523 279.523 196 274 196H10C4.47715 196 0 191.523 0 186V163C0 157.477 5.61306 152.942 8.06735 147.994C8.66437 146.791 9 145.435 9 144C9 142.565 8.66437 141.209 8.06735 140.006C5.61306 135.058 0 130.523 0 125V10Z" fill="#94A6CD" fill-opacity="0.26"/>
<path d="M264 144H20" stroke="#282E45" stroke-width="2" stroke-linecap="round" stroke-dasharray="4 4"/>
</g>
<defs>
<clipPath id="clip0_284_137">
<rect width="284" height="196" fill="white"/>
</clipPath>
</defs>
</svg>
